PathFileType	4	(X/Y/Z)	C:\Users\Basilio\Documents\Thesis Gigler\squatting_fais\c3dfiles\058\SLS_back_pre3\markers_experimental.trc
DataRate	CameraRate	NumFrames	NumMarkers	Units	OrigDataRate	OrigDataStartFrame	OrigNumFrames
200.000000	200.000000	4	59	mm	200.000000	1052	1203
Frame#	Time	FHD			LBHD			RBHD			C7			T10			CLAV			LSHO			LUUPA			LMUPA			LDUPA			LLEP			LMEP			LUL			LRFIN			RSHO			RUPA1			RMUPA			RDUPA			RLEP			RMEP			RUL			RUFIN			LASI			RASI			USACR			LSACR			RSACR			LTHI1			LTHI2			LTHI3			LTHI4			LLFC			LMFC			LTIB1			LTIB2			LTIB3			LTIB4			LLMAL			LMMAL			LHEE			LMT1			LMT2			LMT5			RTHI			RTHI2			RTHI3			RTHI4			RLFC			RMFC			RTIB1			RTIB2			RTIB3			RTIB4			RLMAL			RMMAL			RHEE			RMT1			RMT2			RMT5			
		X1	Y1	Z1	X2	Y2	Z2	X3	Y3	Z3	X4	Y4	Z4	X5	Y5	Z5	X6	Y6	Z6	X7	Y7	Z7	X8	Y8	Z8	X9	Y9	Z9	X10	Y10	Z10	X11	Y11	Z11	X12	Y12	Z12	X13	Y13	Z13	X14	Y14	Z14	X15	Y15	Z15	X16	Y16	Z16	X17	Y17	Z17	X18	Y18	Z18	X19	Y19	Z19	X20	Y20	Z20	X21	Y21	Z21	X22	Y22	Z22	X23	Y23	Z23	X24	Y24	Z24	X25	Y25	Z25	X26	Y26	Z26	X27	Y27	Z27	X28	Y28	Z28	X29	Y29	Z29	X30	Y30	Z30	X31	Y31	Z31	X32	Y32	Z32	X33	Y33	Z33	X34	Y34	Z34	X35	Y35	Z35	X36	Y36	Z36	X37	Y37	Z37	X38	Y38	Z38	X39	Y39	Z39	X40	Y40	Z40	X41	Y41	Z41	X42	Y42	Z42	X43	Y43	Z43	X44	Y44	Z44	X45	Y45	Z45	X46	Y46	Z46	X47	Y47	Z47	X48	Y48	Z48	X49	Y49	Z49	X50	Y50	Z50	X51	Y51	Z51	X52	Y52	Z52	X53	Y53	Z53	X54	Y54	Z54	X55	Y55	Z55	X56	Y56	Z56	X57	Y57	Z57	X58	Y58	Z58	X59	Y59	Z59	

1053	5.26	-245.4297943115235	1809.97509765625	-619.9756469726564	-400.4931030273439	1763.261596679688	-698.7122802734376	-228.3876953125001	1818.149169921875	-761.4387207031251	-412.3797607421876	1598.28662109375	-709.3851318359376	-416.9558105468751	1294.016723632813	-704.6132812500001	-256.6216430664063	1555.268432617188	-692.6764526367189	-267.3055725097657	1607.11474609375	-845.483093261719	-113.0920639038086	1545.01806640625	-956.9691162109377	-89.0458450317383	1582.283081054688	-931.721618652344	-43.0567855834961	1547.760986328125	-949.9348144531252	32.43325805664063	1553.85009765625	-934.1160278320315	38.27022171020509	1497.402587890625	-900.9874267578127	299.0394897460938	1599.877319335938	-900.017028808594	393.2242126464845	1600.873779296875	-819.3264770507815	-285.7587890625001	1606.45458984375	-541.4274902343751	-126.0630569458008	1521.747802734375	-436.8776855468751	-104.231559753418	1560.976196289063	-460.0611877441407	-57.34302902221681	1531.7841796875	-439.1715087890626	10.55426788330078	1525.722900390625	-449.097137451172	17.66709518432618	1467.557495117188	-500.7388000488282	276.6222534179688	1575.307495117188	-459.8916931152345	367.4076843261719	1597.114868164063	-528.0291137695314	-241.4633178710938	1097.8828125	-842.2266235351565	-244.6255645751954	1076.396240234375	-602.2199096679689	-431.9527587890626	1178.169189453125	-707.1596679687501	-440.4727172851564	1149.313720703125	-737.9185180664064	-436.1280822753907	1143.291015625	-680.4718017578126	-220.5687561035157	835.413757324219	-940.2271728515627	-170.5850982666016	765.2517089843751	-936.7984008789065	-131.0380859375	771.2821044921877	-906.5283203125002	-187.5590972900391	706.8745117187501	-938.4629516601565	-193.6331634521485	629.0111083984376	-926.6992187500002	-178.488525390625	601.4729003906251	-797.1277465820315	-274.2153930664063	528.9325561523439	-897.539245605469	-332.1849975585938	580.8427734375001	-933.3496704101565	-325.5430603027344	537.2304077148439	-927.0018310546877	-401.586883544922	507.9668884277345	-898.6353759765627	-602.9638671875001	528.0419311523439	-889.652770996094	-575.6362304687501	480.8645629882814	-812.8791503906252	-587.2333984375001	578.9765625000001	-824.9334716796877	-694.8078002929689	387.8047790527345	-810.0709228515627	nan	nan	nan	-728.2420654296876	447.8825073242189	-893.1766357421877	-370.0823059082032	871.3359375000002	-557.8828125000001	-337.6825866699219	814.2400512695315	-555.9458007812501	-304.5250549316407	811.503601074219	-555.0753784179689	-367.6752014160157	739.2107543945314	-582.1466674804689	-367.2689514160157	557.6257934570314	-612.4196777343751	-324.3996582031251	554.1245117187501	-743.9649047851564	-307.9951782226563	360.0359497070313	-709.2744750976564	-349.8210754394532	275.9614562988282	-654.8395385742189	-311.3624267578126	272.7143249511719	-683.1113281250001	-317.2873535156251	231.7223815917969	-722.9293212890626	-376.7278747558594	118.0273513793946	-696.5103149414064	-342.2156066894532	146.8668365478516	-779.4934692382815	-439.3671264648439	102.9047012329102	-763.2221679687501	-227.2364349365235	62.12205123901369	-773.0540771484377	-224.7710876464844	57.46840286254884	-721.5042724609376	-273.9462280273438	25.56889152526856	-671.3999023437501	
1054	5.265	-245.4510955810547	1810.073974609375	-619.9034423828126	-400.6634216308595	1763.187255859375	-698.6249389648439	-228.4585418701172	1818.186645507813	-761.3652954101564	-412.4478149414064	1598.2685546875	-709.3256835937501	-417.0342407226564	1293.999389648438	-704.6785888671876	-256.2174377441407	1554.871826171875	-692.5526733398439	-267.2936706542969	1607.186279296875	-845.463806152344	-112.938346862793	1545.153198242188	-956.9310302734377	-88.97682189941408	1582.394897460938	-931.630065917969	-43.1720085144043	1547.992065429688	-949.7814941406252	32.44543075561524	1553.953002929688	-933.9426269531252	38.27097702026368	1497.440551757813	-900.9106445312502	299.0928649902344	1599.978637695313	-899.8784179687502	393.226287841797	1601.110473632813	-819.1961059570315	-285.9784851074219	1606.39013671875	-541.3828125000001	-126.0953903198242	1521.770751953125	-436.8921508789064	-104.393051147461	1561.110473632813	-459.895965576172	-57.41225051879884	1531.77392578125	-439.1142578125001	10.31978511810303	1525.745727539063	-448.9046630859376	17.52470016479493	1467.561889648438	-500.6319274902345	276.5606384277344	1575.394775390625	-459.760223388672	367.2751770019532	1597.177856445313	-527.9521484375001	-241.4516143798829	1097.939086914063	-842.2199707031252	-244.7506256103516	1076.302978515625	-602.1871337890626	-431.9585876464845	1178.217529296875	-707.1866455078126	-440.5664672851564	1149.185424804688	-737.8837890625001	-436.1414794921876	1143.347412109375	-680.5202026367189	-220.6107940673829	835.4407958984377	-940.207214355469	-170.5393524169922	765.2626953125001	-936.7996215820315	-131.0535278320313	771.2906494140627	-906.546569824219	-187.5137176513672	706.8915405273439	-938.5017089843752	-193.6588745117188	629.0270385742189	-926.7867431640627	-178.4813079833985	601.5283813476564	-797.131286621094	-274.2530212402344	528.9182128906251	-897.496520996094	-332.2623291015626	580.8497924804689	-933.442565917969	-325.5162353515626	537.2127075195314	-927.0312500000002	-401.502410888672	507.9890441894532	-898.7390136718752	-603.0418701171876	528.0302124023439	-889.7832641601565	-575.7012329101564	480.7644653320314	-812.9629516601565	-587.2683715820314	579.0062866210939	-825.1160888671877	-694.8070068359376	387.798553466797	-810.316833496094	nan	nan	nan	-728.1566162109376	447.8118591308595	-893.5021972656252	-370.0728759765626	871.3750610351565	-557.8960571289064	-337.7066040039063	814.2178344726565	-555.9719848632814	-304.5471801757813	811.4730224609377	-555.1150512695314	-367.6525268554688	739.3134155273439	-582.1504516601564	-367.3179321289063	557.6556396484376	-612.4243774414064	-324.5567321777344	554.1269531250001	-744.0000610351564	-308.0737915039063	360.0005187988282	-709.2040405273439	-349.8159179687501	276.0214233398438	-654.7749023437501	-311.3996276855469	272.7042846679688	-683.0424194335939	-317.2609252929688	231.7701873779297	-722.9017333984376	-376.8378295898438	118.0806503295899	-696.4318237304689	-342.2209472656251	146.8997650146485	-779.418395996094	-439.3672790527345	102.9281311035157	-763.1755981445314	-227.3445281982422	62.12749099731447	-773.0811157226565	-224.7766723632813	57.40494537353517	-721.4581298828126	-273.9343872070313	25.52842903137208	-671.4181518554689	
1055	5.27	-245.6877136230469	1810.098754882813	-619.7172851562501	-400.670379638672	1763.179809570313	-698.5748901367189	-228.4847412109376	1818.209838867188	-761.2750854492189	-412.5148925781251	1598.289184570313	-709.3470458984376	-417.0762939453126	1294.008666992188	-704.6434936523439	-256.6444702148438	1555.373779296875	-692.5770874023439	-267.3841857910157	1607.205810546875	-845.3457641601565	-112.8442306518555	1545.260131835938	-956.8804321289065	-89.01308441162111	1582.482788085938	-931.4920043945315	-43.16830825805665	1548.055541992188	-949.7387695312502	32.36178970336915	1554.043212890625	-933.786071777344	38.17547607421876	1497.463256835938	-900.8944091796877	298.9985656738282	1600.096313476563	-899.6549072265627	393.9695129394532	1601.531372070313	-818.5706176757815	-285.9552001953126	1606.511108398438	-541.3212890625001	-126.2399291992188	1521.724975585938	-436.8361816406251	-104.5054626464844	1561.133178710938	-459.830047607422	-57.55119705200197	1531.932373046875	-438.9888305664064	10.12206840515137	1525.764282226563	-448.714080810547	17.37817001342774	1467.553588867188	-500.5599365234376	276.5673522949219	1575.470092773438	-459.6240539550782	367.1869506835938	1597.034790039063	-527.9146118164064	-241.4187774658204	1097.945190429688	-842.2100830078127	-244.8290100097657	1076.243530273438	-602.2089233398439	-431.9657592773439	1178.222900390625	-707.2544555664064	-440.5336914062501	1149.226318359375	-737.9429321289064	-436.1693420410157	1143.404663085938	-680.5586547851564	-220.5489196777344	835.482116699219	-940.260925292969	-170.6225280761719	765.2915039062501	-936.848327636719	-131.0879669189453	771.3115234375002	-906.5779418945315	-187.4998474121094	706.9091796875001	-938.4885253906252	-193.6739196777344	629.0325317382814	-926.7798461914065	-178.5271148681641	601.5044555664064	-797.1860351562502	-274.2134094238282	528.9869995117189	-897.613952636719	-332.2208862304688	580.8262939453126	-933.5982666015627	-324.4093322753907	537.3255004882814	-926.5543212890627	-401.4131164550782	508.5710754394532	-898.246032714844	-603.1810302734376	528.0587768554689	-889.9595336914065	-575.7546386718751	480.7060852050782	-813.061706542969	-587.3329467773439	579.0346679687501	-825.3079223632815	-694.8093872070314	387.7105102539064	-810.5213623046877	nan	nan	nan	-728.2206420898439	447.7124023437501	-893.6529541015627	-370.1077575683594	871.355651855469	-557.9314575195314	-337.7182922363282	814.2525634765627	-556.0283813476564	-304.5901184082032	811.4749755859377	-555.1558227539064	-367.6611022949219	739.3317260742189	-582.1477661132814	-367.3606262207032	557.6885986328126	-612.4504394531251	-324.6782836914063	554.1013793945314	-744.0727539062501	-308.0063781738282	360.0480651855469	-709.1322631835939	-349.8243103027344	275.9891967773438	-654.7362060546876	-311.3955078125001	272.7601013183594	-682.9885253906251	-317.2886962890626	231.7377319335938	-722.7999267578126	-376.8534240722657	118.0178833007813	-696.3920288085939	-342.1723022460938	146.8871307373047	-779.3728027343752	-439.3988342285157	102.8907165527344	-763.1222534179689	-227.3453216552735	62.21519851684572	-772.9865722656252	-224.7531890869141	57.4674415588379	-721.4415893554689	-273.9677734375001	25.47494125366212	-671.3648681640626	
1056	5.275	-245.8801574707032	1810.15869140625	-619.5842285156251	-400.6643981933595	1763.234741210938	-698.5512084960939	-228.6289367675782	1818.2109375	-761.2442626953126	-412.5294189453126	1598.3525390625	-709.3261108398439	-417.0327758789064	1294.087036132813	-704.7251586914064	-256.4563903808594	1554.889526367188	-692.4722900390626	-267.4834594726563	1607.269897460938	-845.3114013671877	-112.8748626708985	1545.3681640625	-956.803894042969	-88.99700927734376	1582.545043945313	-931.3992919921877	-43.14164352416993	1548.201904296875	-949.6695556640627	32.28592681884766	1554.087890625	-933.6462402343752	38.0898780822754	1497.505004882813	-900.7603149414065	299.0926818847657	1600.191040039063	-899.557067871094	393.0806274414064	1601.392211914063	-818.808532714844	-286.1696166992188	1606.405151367188	-541.3351440429689	-126.4607009887696	1521.728271484375	-436.6886291503907	-104.5870666503907	1561.13037109375	-459.7457885742189	-57.63665771484376	1531.94775390625	-438.9136962890626	9.926146507263185	1525.712890625	-448.6070251464845	17.31598281860352	1467.5927734375	-500.4850463867189	276.4729309082032	1575.612548828125	-459.4737243652345	367.0915222167969	1597.099853515625	-527.7534179687501	-241.5517730712891	1097.958374023438	-842.265808105469	-244.8289031982422	1076.242309570313	-602.2120361328126	-432.0554809570314	1178.208984375	-707.2324829101564	-440.5919189453126	1149.261840820313	-737.9481811523439	-436.152557373047	1143.474853515625	-680.5921630859376	-220.5736541748047	835.487731933594	-940.2915649414065	-170.6550445556641	765.3392333984376	-936.8320312500002	-131.0726928710938	771.535827636719	-906.585388183594	-187.5498809814453	706.9335327148439	-938.4887695312502	-193.6755065917969	629.0512695312501	-926.7650146484377	-178.5321044921875	601.5140380859376	-797.2415771484377	-274.1406860351563	528.9644775390626	-897.7144165039065	-332.2172241210938	580.8724365234376	-933.6680297851565	-324.4760742187501	537.3967285156251	-926.6374511718752	-403.8698730468751	508.3013916015626	-895.4680786132815	-603.0972900390626	527.9848632812501	-890.1279907226565	-575.8125000000001	480.6568908691407	-813.2517089843752	-587.3954467773439	579.0090942382814	-825.5930175781252	-694.7523803710939	387.4981689453126	-810.7045898437502	nan	nan	nan	-728.0853881835939	447.6411437988282	-893.807312011719	-370.0731811523438	871.3845825195315	-557.9202270507814	-337.7147827148438	814.2681884765627	-556.0342407226564	-304.5221252441407	811.4932250976565	-555.2548217773439	-367.6599121093751	739.3350219726564	-582.1548461914064	-367.4434204101563	557.6740112304689	-612.4351806640626	-324.7124328613282	554.1914672851564	-744.0852661132814	-308.0137023925782	360.0706481933594	-709.1309814453126	-349.8737487792969	276.0585021972657	-654.7193603515626	-311.4095153808594	272.7332458496094	-682.9458007812501	-317.2845153808594	231.7393646240235	-722.7883911132814	-376.9104919433594	118.0035705566407	-696.2561645507814	-342.1859741210938	146.9097747802735	-779.315612792969	-439.3770141601564	102.9001541137696	-763.1188964843751	-227.2830200195313	62.28639984130861	-772.9089355468752	-224.7689208984376	57.45276641845705	-721.3975219726564	-273.9847106933594	25.48658180236817	-671.3762817382814	
